<svg width="305" height="56" viewBox="0 0 305 56" fill="none" xmlns="http://www.w3.org/2000/svg">
<path fill-rule="evenodd" clip-rule="evenodd" d="M70.5312 0.724567H80.0625L101.031 28.5868V0.724567H110.562V46.4688H102.938L80.0625 17.3343V46.4688H70.5312V0.724567Z" fill="#0067C5"/>
<path fill-rule="evenodd" clip-rule="evenodd" d="M140.941 25.5588C140.357 21.136 137.748 18.1592 133.579 18.1592C129.465 18.1592 126.789 21.0917 126.009 25.5588H140.941ZM116.294 28.4797V28.3471C116.206 25.9989 116.588 23.6571 117.418 21.4622C118.248 19.2673 119.508 17.2646 121.123 15.5743C122.738 13.8841 124.673 12.5412 126.814 11.6263C128.955 10.7113 131.256 10.2432 133.581 10.2501C145.249 10.2501 150.594 19.2668 150.594 29.1297C150.594 29.8989 150.535 30.313 150.463 31.2188H126.138C126.469 33.2263 127.528 35.5421 129.108 36.8023C130.689 38.0626 132.678 38.6817 134.686 38.5387C136.265 38.5619 137.833 38.2569 139.291 37.6426C140.749 37.0284 142.067 36.118 143.163 34.9678L148.831 39.9675C147.11 42.0892 144.926 43.7791 142.452 44.9047C139.977 46.0304 137.278 46.5612 134.566 46.4556C124.054 46.4479 116.294 39.1195 116.294 28.4797Z" fill="#0067C5"/>
<path fill-rule="evenodd" clip-rule="evenodd" d="M156.312 19.7814H152.5V12.1562H156.312V2.625H165.844V12.1562H175.375V19.7814H165.844V34.5046C165.844 36.7549 167.948 37.8505 170.219 37.8505C171.971 37.8595 173.834 37.7528 175.375 36.9375V44.468C172.937 45.8487 169.614 46.5395 166.797 46.463C160.584 46.463 156.311 44.0812 156.311 36.109L156.312 19.7814Z" fill="#0067C5"/>
<path fill-rule="evenodd" clip-rule="evenodd" d="M253.28 28.3239V28.2029C253.28 22.4399 249.418 18.6132 244.856 18.6132C240.294 18.6132 236.495 22.436 236.495 28.2029V28.3297C236.495 34.0927 240.29 37.9348 244.856 37.9348C249.421 37.9348 253.28 34.1581 253.28 28.3239ZM226.844 10.25H236.375V15.8854C237.57 14.1088 239.425 12.664 241.3 11.6808C243.175 10.6977 245.706 10.207 247.812 10.253C255.858 10.253 263.062 16.6038 263.062 28.2029V28.3297C263.062 39.9326 255.03 46.4688 246.859 46.4688C244.799 46.5148 243.262 45.885 241.398 44.985C239.534 44.0849 237.651 42.7538 236.375 41.0968V56H226.844V10.25Z" fill="#0067C5"/>
<path fill-rule="evenodd" clip-rule="evenodd" d="M207.326 27.4062L201.109 12.1562L195.183 27.4138L207.326 27.4062ZM196.344 0.71875H205.875L224.99 46.4688H214.453L209.688 35.0312H192.531L187.766 46.4688H177.281L196.344 0.71875Z" fill="#0067C5"/>
<path fill-rule="evenodd" clip-rule="evenodd" d="M0 46.4688H20.9688V19.7812H34.3125V46.4688H55.2812V0.71875H0V46.4688Z" fill="#0067C5"/>
<path fill-rule="evenodd" clip-rule="evenodd" d="M295.217 28.3239V28.2029C295.217 22.4399 291.355 18.6132 286.793 18.6132C282.231 18.6132 278.433 22.436 278.433 28.2029V28.3297C278.433 34.0927 282.227 37.9348 286.793 37.9348C291.359 37.9348 295.217 34.1581 295.217 28.3239ZM268.781 10.25H278.312V15.8854C279.507 14.1088 281.362 12.664 283.238 11.6808C285.113 10.6977 287.644 10.207 289.75 10.253C297.795 10.253 305 16.6038 305 28.2029V28.3297C305 39.9326 296.968 46.4688 288.797 46.4688C286.736 46.5148 285.2 45.885 283.336 44.985C281.471 44.0849 279.589 42.7538 278.312 41.0968V56H268.781V10.25Z" fill="#0067C5"/>
</svg>
