<svg xmlns="http://www.w3.org/2000/svg" width="48" height="48" viewBox="0 0 48 48" fill="none">
  <path fill-rule="evenodd" clip-rule="evenodd" d="M24 46C36.1503 46 46 36.1503 46 24C46 11.8497 36.1503 2 24 2C11.8497 2 2 11.8497 2 24C2 36.1503 11.8497 46 24 46ZM24 48C37.2548 48 48 37.2548 48 24C48 10.7452 37.2548 0 24 0C10.7452 0 0 10.7452 0 24C0 37.2548 10.7452 48 24 48Z" fill="white"/>
  <path fill-rule="evenodd" clip-rule="evenodd" d="M13.8391 37.6734C16.4201 40.3148 20.0179 41.951 24 41.951C27.982 41.951 31.5798 40.3148 34.1608 37.6736C33.9359 35.1941 32.8235 32.9697 31.14 31.321C29.3536 33.2189 26.816 34.4069 24 34.4069C21.1839 34.4069 18.6463 33.2189 16.8599 31.3209C15.1764 32.9696 14.064 35.194 13.8391 37.6734ZM15.7462 29.8948C13.4979 32.0243 12.0733 35.0144 11.9999 38.3375C14.9323 41.6573 19.2216 43.751 24 43.751C28.7783 43.751 33.0675 41.6574 36 38.3378C35.9267 35.0146 34.5021 32.0244 32.2537 29.8948C31.8148 29.4791 31.3445 29.0961 30.8467 28.7499C30.6734 29.0355 30.4828 29.3095 30.2762 29.5702C28.8105 31.4202 26.5439 32.6069 24 32.6069C21.4561 32.6069 19.1894 31.4201 17.7237 29.5702C17.5171 29.3094 17.3265 29.0355 17.1532 28.7499C16.6554 29.0961 16.1851 29.4791 15.7462 29.8948Z" fill="white"/>
  <path fill-rule="evenodd" clip-rule="evenodd" d="M23.997 28.75C26.2061 28.75 27.997 26.9591 27.997 24.75C27.997 22.5409 26.2061 20.75 23.997 20.75C21.7879 20.75 19.997 22.5409 19.997 24.75C19.997 26.9591 21.7879 28.75 23.997 28.75ZM23.997 30.75C27.3107 30.75 29.997 28.0637 29.997 24.75C29.997 21.4363 27.3107 18.75 23.997 18.75C20.6833 18.75 17.997 21.4363 17.997 24.75C17.997 28.0637 20.6833 30.75 23.997 30.75Z" fill="white"/>
  <path fill-rule="evenodd" clip-rule="evenodd" d="M43 25.5C43 26.0523 42.5523 26.5 42 26.5H32.7552C32.4786 26.5 32.2143 26.3854 32.0253 26.1835C31.8362 25.9815 31.7392 25.7103 31.7574 25.4343C31.769 25.2576 31.775 25.0793 31.775 24.8994C31.775 20.4811 28.1932 16.8994 23.775 16.8994C19.3567 16.8994 15.775 20.4811 15.775 24.8994C15.775 25.0793 15.7809 25.2576 15.7925 25.4343C15.8107 25.7103 15.7137 25.9815 15.5247 26.1835C15.3356 26.3854 15.0713 26.5 14.7947 26.5L6 26.5C5.44772 26.5 5 26.0523 5 25.5L5 20.7955C5 20.3066 5.35341 19.8894 5.8356 19.8091L10.0669 19.1038C10.2953 18.1372 10.5694 17.1466 11.0318 16.1968L8.75291 12.7699C8.48924 12.3734 8.54171 11.846 8.87833 11.5092L12.2718 8.11422C12.6089 7.77697 13.1373 7.72465 13.534 7.98924L16.7979 10.1662C17.7567 9.61345 18.7843 9.17078 19.8673 8.85103L20.6263 5.05397C20.7198 4.5865 21.1302 4.25 21.6069 4.25L26.4091 4.25C26.8858 4.25 27.2962 4.5865 27.3897 5.05397L28.1487 8.85103C29.2317 9.17078 30.2593 9.61345 31.2181 10.1662L34.482 7.98924C34.8787 7.72465 35.4071 7.77697 35.7442 8.11423L39.1377 11.5092C39.4743 11.846 39.5268 12.3734 39.2631 12.7699L36.9897 16.1885C37.4604 17.0928 37.8264 18.0503 38.0957 19.0468L42.1962 19.8673C42.6636 19.9608 43 20.3712 43 20.8479V25.5ZM41 24.5V21.6676L37.0817 20.8836C36.6948 20.8062 36.3895 20.5084 36.3025 20.1236C36.0186 18.8678 35.5733 17.6998 34.9574 16.6434C34.7652 16.3138 34.7773 15.9036 34.9886 15.5859L37.1444 12.3441L34.9095 10.1082L31.7981 12.1834C31.4678 12.4037 31.0384 12.4077 30.704 12.1936C29.5949 11.4834 28.3672 10.9506 27.0494 10.6247C26.6733 10.5317 26.3848 10.2298 26.3089 9.84995L25.5892 6.25L22.4268 6.25L21.7071 9.84995C21.6312 10.2298 21.3427 10.5317 20.9666 10.6247C19.6488 10.9506 18.4211 11.4834 17.312 12.1936C16.9776 12.4077 16.5482 12.4037 16.2179 12.1834L13.1066 10.1082L10.8716 12.3441L13.0274 15.5859C13.2387 15.9036 13.2508 16.3138 13.0586 16.6434C12.4889 17.6206 12.2056 18.7107 11.9082 20.0187C11.8889 20.4895 11.542 20.8856 11.0735 20.9637L7 21.6426L7 24.5L13.7828 24.5C13.9925 19.1623 18.3859 14.8994 23.775 14.8994C29.164 14.8994 33.5575 19.1623 33.7671 24.5H41Z" fill="white"/>
</svg>