<svg width="371" height="265" viewBox="0 0 371 265" fill="none" xmlns="http://www.w3.org/2000/svg">
<g clip-path="url(#clip0_831_104162)">
<path d="M17.146 53.9549C20.411 53.9549 23.0577 51.3071 23.0577 48.0409C23.0577 44.7747 20.411 42.127 17.146 42.127C13.8811 42.127 11.2344 44.7747 11.2344 48.0409C11.2344 51.3071 13.8811 53.9549 17.146 53.9549Z" fill="#E6E6E6"/>
<path d="M34.8804 53.9549C38.1453 53.9549 40.7921 51.3071 40.7921 48.0409C40.7921 44.7747 38.1453 42.127 34.8804 42.127C31.6155 42.127 28.9688 44.7747 28.9688 48.0409C28.9688 51.3071 31.6155 53.9549 34.8804 53.9549Z" fill="#E6E6E6"/>
<path d="M52.6148 53.9549C55.8797 53.9549 58.5264 51.3071 58.5264 48.0409C58.5264 44.7747 55.8797 42.127 52.6148 42.127C49.3499 42.127 46.7031 44.7747 46.7031 48.0409C46.7031 51.3071 49.3499 53.9549 52.6148 53.9549Z" fill="#E6E6E6"/>
<path d="M70.3492 53.9549C73.6141 53.9549 76.2608 51.3071 76.2608 48.0409C76.2608 44.7747 73.6141 42.127 70.3492 42.127C67.0842 42.127 64.4375 44.7747 64.4375 48.0409C64.4375 51.3071 67.0842 53.9549 70.3492 53.9549Z" fill="#E6E6E6"/>
<path d="M88.0835 53.9549C91.3485 53.9549 93.9952 51.3071 93.9952 48.0409C93.9952 44.7747 91.3485 42.127 88.0835 42.127C84.8186 42.127 82.1719 44.7747 82.1719 48.0409C82.1719 51.3071 84.8186 53.9549 88.0835 53.9549Z" fill="#E6E6E6"/>
<path d="M105.818 53.9549C109.083 53.9549 111.73 51.3071 111.73 48.0409C111.73 44.7747 109.083 42.127 105.818 42.127C102.553 42.127 99.9062 44.7747 99.9062 48.0409C99.9062 51.3071 102.553 53.9549 105.818 53.9549Z" fill="#E6E6E6"/>
<path d="M123.56 53.9549C126.825 53.9549 129.472 51.3071 129.472 48.0409C129.472 44.7747 126.825 42.127 123.56 42.127C120.295 42.127 117.648 44.7747 117.648 48.0409C117.648 51.3071 120.295 53.9549 123.56 53.9549Z" fill="#E6E6E6"/>
<path d="M137.215 55.2435H3.48386C2.84605 55.2427 2.23457 54.9889 1.78357 54.5377C1.33257 54.0865 1.07887 53.4748 1.07812 52.8368V43.2465C1.07887 42.6085 1.33257 41.9967 1.78357 41.5456C2.23457 41.0944 2.84605 40.8406 3.48386 40.8398H137.215C137.853 40.8406 138.464 41.0944 138.915 41.5456C139.366 41.9967 139.62 42.6085 139.621 43.2465V52.8368C139.62 53.4748 139.366 54.0865 138.915 54.5377C138.464 54.9889 137.853 55.2427 137.215 55.2435ZM3.48386 41.8025C3.10116 41.8029 2.73426 41.9552 2.46365 42.2259C2.19305 42.4966 2.04083 42.8637 2.04042 43.2465V52.8368C2.04084 53.2196 2.19305 53.5867 2.46365 53.8574C2.73426 54.1281 3.10116 54.2804 3.48386 54.2808H137.215C137.598 54.2804 137.965 54.1281 138.235 53.8574C138.506 53.5867 138.658 53.2196 138.659 52.8368V43.2465C138.658 42.8637 138.506 42.4966 138.235 42.2259C137.965 41.9552 137.598 41.8029 137.215 41.8025L3.48386 41.8025Z" fill="#E6E6E6"/>
<path d="M32.1056 1.38278C32.472 1.3832 32.8233 1.52902 33.0825 1.78824C33.3416 2.04747 33.4874 2.39893 33.4878 2.76553V32.7301C33.4874 33.0967 33.3416 33.4481 33.0825 33.7074C32.8233 33.9666 32.472 34.1124 32.1056 34.1128H2.76449C2.39803 34.1124 2.0467 33.9666 1.78757 33.7074C1.52845 33.4481 1.38268 33.0967 1.38227 32.7301V2.76556C1.38268 2.39896 1.52845 2.04749 1.78757 1.78826C2.0467 1.52904 2.39803 1.38322 2.76449 1.3828L32.1056 1.38278ZM32.1056 1.98612e-05H2.76449C2.0313 1.98612e-05 1.32815 0.291389 0.809704 0.810033C0.291263 1.32868 0 2.03211 0 2.76558V32.7301C0 33.4635 0.291263 34.167 0.809704 34.6856C1.32815 35.2043 2.0313 35.4956 2.76449 35.4956H32.1056C32.8387 35.4956 33.5419 35.2043 34.0603 34.6856C34.5788 34.167 34.87 33.4635 34.87 32.7301V2.76556C34.87 2.03209 34.5788 1.32866 34.0603 0.810013C33.5419 0.29137 32.8387 2.10119e-05 32.1056 1.98612e-05Z" fill="#E6E6E6"/>
<path d="M27.5293 9.25972H7.95317C7.86206 9.26028 7.77174 9.24282 7.6874 9.20832C7.60306 9.17383 7.52637 9.12299 7.46174 9.05873C7.39711 8.99448 7.34583 8.91807 7.31083 8.83391C7.27583 8.74975 7.25781 8.6595 7.25781 8.56835C7.25781 8.4772 7.27583 8.38694 7.31083 8.30278C7.34583 8.21862 7.39711 8.14222 7.46174 8.07796C7.52637 8.01371 7.60306 7.96287 7.6874 7.92837C7.77174 7.89388 7.86206 7.87641 7.95317 7.87697H27.5293C27.6204 7.87641 27.7108 7.89388 27.7951 7.92837C27.8794 7.96287 27.9561 8.01371 28.0208 8.07796C28.0854 8.14222 28.1367 8.21862 28.1717 8.30278C28.2067 8.38694 28.2247 8.4772 28.2247 8.56835C28.2247 8.6595 28.2067 8.74975 28.1717 8.83391C28.1367 8.91807 28.0854 8.99448 28.0208 9.05873C27.9561 9.12299 27.8794 9.17383 27.7951 9.20832C27.7108 9.24282 27.6204 9.26028 27.5293 9.25972Z" fill="#0067C5"/>
<path d="M27.5293 14.1562H7.95317C7.86206 14.1568 7.77174 14.1393 7.6874 14.1048C7.60306 14.0703 7.52637 14.0195 7.46174 13.9552C7.39711 13.891 7.34583 13.8145 7.31083 13.7304C7.27583 13.6462 7.25781 13.556 7.25781 13.4648C7.25781 13.3737 7.27583 13.2834 7.31083 13.1993C7.34583 13.1151 7.39711 13.0387 7.46174 12.9744C7.52637 12.9102 7.60306 12.8594 7.6874 12.8249C7.77174 12.7904 7.86206 12.7729 7.95317 12.7735H27.5293C27.6204 12.7729 27.7108 12.7904 27.7951 12.8249C27.8794 12.8594 27.9561 12.9102 28.0208 12.9744C28.0854 13.0387 28.1367 13.1151 28.1717 13.1993C28.2067 13.2834 28.2247 13.3737 28.2247 13.4648C28.2247 13.556 28.2067 13.6462 28.1717 13.7304C28.1367 13.8145 28.0854 13.891 28.0208 13.9552C27.9561 14.0195 27.8794 14.0703 27.7951 14.1048C27.7108 14.1393 27.6204 14.1568 27.5293 14.1562Z" fill="#0067C5"/>
<path d="M27.5293 19.0507H7.95317C7.86206 19.0513 7.77174 19.0338 7.6874 18.9993C7.60306 18.9648 7.52637 18.914 7.46174 18.8497C7.39711 18.7855 7.34583 18.7091 7.31083 18.6249C7.27583 18.5408 7.25781 18.4505 7.25781 18.3594C7.25781 18.2682 7.27583 18.178 7.31083 18.0938C7.34583 18.0096 7.39711 17.9332 7.46174 17.869C7.52637 17.8047 7.60306 17.7539 7.6874 17.7194C7.77174 17.6849 7.86206 17.6674 7.95317 17.668H27.5293C27.6204 17.6674 27.7108 17.6849 27.7951 17.7194C27.8794 17.7539 27.9561 17.8047 28.0208 17.869C28.0854 17.9332 28.1367 18.0096 28.1717 18.0938C28.2067 18.178 28.2247 18.2682 28.2247 18.3594C28.2247 18.4505 28.2067 18.5408 28.1717 18.6249C28.1367 18.7091 28.0854 18.7855 28.0208 18.8497C27.9561 18.914 27.8794 18.9648 27.7951 18.9993C27.7108 19.0338 27.6204 19.0513 27.5293 19.0507Z" fill="#0067C5"/>
<path d="M27.5293 23.9472H7.95317C7.86206 23.9478 7.77174 23.9303 7.6874 23.8958C7.60306 23.8613 7.52637 23.8105 7.46174 23.7462C7.39711 23.682 7.34583 23.6056 7.31083 23.5214C7.27583 23.4372 7.25781 23.347 7.25781 23.2558C7.25781 23.1647 7.27583 23.0744 7.31083 22.9903C7.34583 22.9061 7.39711 22.8297 7.46174 22.7655C7.52637 22.7012 7.60306 22.6504 7.6874 22.6159C7.77174 22.5814 7.86206 22.5639 7.95317 22.5645H27.5293C27.6204 22.5639 27.7108 22.5814 27.7951 22.6159C27.8794 22.6504 27.9561 22.7012 28.0208 22.7655C28.0854 22.8297 28.1367 22.9061 28.1717 22.9903C28.2067 23.0744 28.2247 23.1647 28.2247 23.2558C28.2247 23.347 28.2067 23.4372 28.1717 23.5214C28.1367 23.6056 28.0854 23.682 28.0208 23.7462C27.9561 23.8105 27.8794 23.8613 27.7951 23.8958C27.7108 23.9303 27.6204 23.9478 27.5293 23.9472Z" fill="#0067C5"/>
<path d="M27.5329 28.8437H7.95674C7.77345 28.8437 7.59766 28.7709 7.46804 28.6412C7.33843 28.5116 7.26562 28.3357 7.26562 28.1523C7.26562 27.969 7.33843 27.7931 7.46804 27.6634C7.59766 27.5338 7.77345 27.4609 7.95674 27.4609H27.5329C27.7162 27.4609 27.892 27.5338 28.0216 27.6634C28.1512 27.7931 28.224 27.969 28.224 28.1523C28.224 28.3357 28.1512 28.5116 28.0216 28.6412C27.892 28.7709 27.7162 28.8437 27.5329 28.8437Z" fill="#0067C5"/>
<path d="M132.316 1.38278C132.683 1.3832 133.034 1.52902 133.293 1.78824C133.553 2.04747 133.698 2.39893 133.699 2.76553V32.7301C133.698 33.0967 133.553 33.4481 133.293 33.7074C133.034 33.9666 132.683 34.1124 132.316 34.1128H102.975C102.609 34.1124 102.258 33.9666 101.999 33.7074C101.739 33.4481 101.594 33.0967 101.593 32.7301V2.76556C101.594 2.39896 101.739 2.04749 101.999 1.78826C102.258 1.52904 102.609 1.38322 102.975 1.3828L132.316 1.38278ZM132.316 1.98612e-05H102.975C102.242 1.98612e-05 101.539 0.291389 101.021 0.810033C100.502 1.32868 100.211 2.03211 100.211 2.76558V32.7301C100.211 33.4635 100.502 34.167 101.021 34.6856C101.539 35.2043 102.242 35.4956 102.975 35.4956H132.316C133.05 35.4956 133.753 35.2043 134.271 34.6856C134.79 34.167 135.081 33.4635 135.081 32.7301V2.76556C135.081 2.03209 134.79 1.32866 134.271 0.810013C133.753 0.29137 133.05 1.98612e-05 132.316 1.98612e-05Z" fill="#E6E6E6"/>
<path d="M127.74 9.25972H108.164C108.073 9.26028 107.983 9.24282 107.898 9.20832C107.814 9.17383 107.737 9.12299 107.673 9.05873C107.608 8.99448 107.557 8.91807 107.522 8.83391C107.487 8.74975 107.469 8.6595 107.469 8.56835C107.469 8.4772 107.487 8.38694 107.522 8.30278C107.557 8.21862 107.608 8.14222 107.673 8.07796C107.737 8.01371 107.814 7.96287 107.898 7.92837C107.983 7.89388 108.073 7.87641 108.164 7.87697H127.74C127.923 7.87809 128.098 7.95142 128.226 8.08096C128.355 8.2105 128.427 8.38571 128.427 8.56835C128.427 8.75098 128.355 8.92619 128.226 9.05573C128.098 9.18527 127.923 9.2586 127.74 9.25972Z" fill="#0067C5"/>
<path d="M127.74 14.1562H108.164C108.073 14.1568 107.983 14.1393 107.898 14.1048C107.814 14.0703 107.737 14.0195 107.673 13.9552C107.608 13.891 107.557 13.8145 107.522 13.7304C107.487 13.6462 107.469 13.556 107.469 13.4648C107.469 13.3737 107.487 13.2834 107.522 13.1993C107.557 13.1151 107.608 13.0387 107.673 12.9744C107.737 12.9102 107.814 12.8594 107.898 12.8249C107.983 12.7904 108.073 12.7729 108.164 12.7735H127.74C127.923 12.7746 128.098 12.8479 128.226 12.9774C128.355 13.107 128.427 13.2822 128.427 13.4648C128.427 13.6475 128.355 13.8227 128.226 13.9522C128.098 14.0818 127.923 14.1551 127.74 14.1562Z" fill="#0067C5"/>
<path d="M127.74 19.0507H108.164C108.073 19.0513 107.983 19.0338 107.898 18.9993C107.814 18.9648 107.737 18.914 107.673 18.8497C107.608 18.7855 107.557 18.7091 107.522 18.6249C107.487 18.5408 107.469 18.4505 107.469 18.3594C107.469 18.2682 107.487 18.178 107.522 18.0938C107.557 18.0096 107.608 17.9332 107.673 17.869C107.737 17.8047 107.814 17.7539 107.898 17.7194C107.983 17.6849 108.073 17.6674 108.164 17.668H127.74C127.923 17.6691 128.098 17.7424 128.226 17.872C128.355 18.0015 128.427 18.1767 128.427 18.3594C128.427 18.542 128.355 18.7172 128.226 18.8467C128.098 18.9763 127.923 19.0496 127.74 19.0507Z" fill="#0067C5"/>
<path d="M127.74 23.9472H108.164C108.073 23.9478 107.983 23.9303 107.898 23.8958C107.814 23.8613 107.737 23.8105 107.673 23.7462C107.608 23.682 107.557 23.6056 107.522 23.5214C107.487 23.4372 107.469 23.347 107.469 23.2558C107.469 23.1647 107.487 23.0744 107.522 22.9903C107.557 22.9061 107.608 22.8297 107.673 22.7655C107.737 22.7012 107.814 22.6504 107.898 22.6159C107.983 22.5814 108.073 22.5639 108.164 22.5645H127.74C127.923 22.5656 128.098 22.6389 128.226 22.7685C128.355 22.898 128.427 23.0732 128.427 23.2558C128.427 23.4385 128.355 23.6137 128.226 23.7432C128.098 23.8728 127.923 23.9461 127.74 23.9472Z" fill="#0067C5"/>
<path d="M127.744 28.8437H108.168C107.984 28.8437 107.809 28.7709 107.679 28.6412C107.549 28.5116 107.477 28.3357 107.477 28.1523C107.477 27.969 107.549 27.7931 107.679 27.6634C107.809 27.5338 107.984 27.4609 108.168 27.4609H127.744C127.927 27.4609 128.103 27.5338 128.233 27.6634C128.362 27.7931 128.435 27.969 128.435 28.1523C128.435 28.3357 128.362 28.5116 128.233 28.6412C128.103 28.7709 127.927 28.8437 127.744 28.8437Z" fill="#0067C5"/>
<path d="M232.043 58.998C232.41 58.9984 232.761 59.1443 233.02 59.4035C233.279 59.6627 233.425 60.0142 233.425 60.3808V90.3453C233.425 90.7119 233.279 91.0633 233.02 91.3226C232.761 91.5818 232.41 91.7276 232.043 91.728H202.702C202.336 91.7276 201.984 91.5818 201.725 91.3226C201.466 91.0633 201.32 90.7119 201.32 90.3453V60.3808C201.32 60.0142 201.466 59.6627 201.725 59.4035C201.984 59.1443 202.336 58.9985 202.702 58.998L232.043 58.998ZM232.043 57.6153H202.702C201.969 57.6153 201.266 57.9067 200.747 58.4253C200.229 58.9439 199.938 59.6474 199.938 60.3808V90.3453C199.937 91.0788 200.229 91.7822 200.747 92.3009C201.266 92.8195 201.969 93.1109 202.702 93.1109H232.043C232.776 93.1109 233.479 92.8195 233.998 92.3009C234.516 91.7822 234.808 91.0788 234.808 90.3453V60.3808C234.808 59.6473 234.516 58.9439 233.998 58.4253C233.479 57.9066 232.776 57.6153 232.043 57.6153Z" fill="#0067C5"/>
<path d="M227.467 66.873H207.891C207.8 66.8736 207.709 66.8561 207.625 66.8216C207.541 66.7871 207.464 66.7363 207.399 66.672C207.335 66.6078 207.283 66.5314 207.248 66.4472C207.213 66.363 207.195 66.2728 207.195 66.1816C207.195 66.0905 207.213 66.0002 207.248 65.9161C207.283 65.8319 207.335 65.7555 207.399 65.6912C207.464 65.627 207.541 65.5762 207.625 65.5417C207.709 65.5072 207.8 65.4897 207.891 65.4902H227.467C227.649 65.4914 227.824 65.5647 227.953 65.6942C228.081 65.8238 228.154 65.999 228.154 66.1816C228.154 66.3643 228.081 66.5395 227.953 66.669C227.824 66.7985 227.649 66.8719 227.467 66.873Z" fill="#0067C5"/>
<path d="M227.47 71.7695H207.894C207.711 71.7695 207.535 71.6967 207.406 71.567C207.276 71.4373 207.203 71.2615 207.203 71.0781C207.203 70.8947 207.276 70.7189 207.406 70.5892C207.535 70.4596 207.711 70.3867 207.894 70.3867H227.47C227.654 70.3867 227.829 70.4596 227.959 70.5892C228.089 70.7189 228.162 70.8947 228.162 71.0781C228.162 71.2615 228.089 71.4373 227.959 71.567C227.829 71.6967 227.654 71.7695 227.47 71.7695Z" fill="#0067C5"/>
<path d="M227.466 76.666H207.89C207.799 76.6664 207.709 76.6489 207.624 76.6143C207.54 76.5798 207.464 76.5289 207.399 76.4647C207.334 76.4004 207.283 76.3241 207.248 76.24C207.213 76.1559 207.195 76.0657 207.195 75.9746C207.195 75.8835 207.213 75.7933 207.248 75.7092C207.283 75.6251 207.334 75.5487 207.399 75.4845C207.464 75.4202 207.54 75.3694 207.624 75.3348C207.709 75.3003 207.799 75.2828 207.89 75.2832H227.466C227.649 75.2843 227.823 75.3577 227.952 75.4872C228.081 75.6167 228.153 75.7919 228.153 75.9746C228.153 76.1572 228.081 76.3324 227.952 76.462C227.823 76.5915 227.649 76.6648 227.466 76.666Z" fill="#0067C5"/>
<path d="M227.467 81.5625H207.891C207.8 81.563 207.709 81.5455 207.625 81.5111C207.541 81.4766 207.464 81.4257 207.399 81.3615C207.335 81.2972 207.283 81.2208 207.248 81.1366C207.213 81.0525 207.195 80.9622 207.195 80.8711C207.195 80.7799 207.213 80.6897 207.248 80.6055C207.283 80.5214 207.335 80.445 207.399 80.3807C207.464 80.3164 207.541 80.2656 207.625 80.2311C207.709 80.1966 207.8 80.1791 207.891 80.1797H227.467C227.649 80.1808 227.824 80.2542 227.953 80.3837C228.081 80.5132 228.154 80.6884 228.154 80.8711C228.154 81.0537 228.081 81.2289 227.953 81.3585C227.824 81.488 227.649 81.5613 227.467 81.5625Z" fill="#0067C5"/>
<path d="M227.467 86.4589H207.891C207.8 86.4595 207.709 86.442 207.625 86.4075C207.541 86.373 207.464 86.3222 207.399 86.258C207.335 86.1937 207.283 86.1173 207.248 86.0331C207.213 85.949 207.195 85.8587 207.195 85.7676C207.195 85.6764 207.213 85.5862 207.248 85.502C207.283 85.4178 207.335 85.3414 207.399 85.2772C207.464 85.2129 207.541 85.1621 207.625 85.1276C207.709 85.0931 207.8 85.0756 207.891 85.0762H227.467C227.649 85.0773 227.824 85.1506 227.953 85.2802C228.081 85.4097 228.154 85.5849 228.154 85.7676C228.154 85.9502 228.081 86.1254 227.953 86.2549C227.824 86.3845 227.649 86.4578 227.467 86.4589Z" fill="#0067C5"/>
<path d="M82.5946 35.4954H52.4853C51.6711 35.4944 50.8904 35.1704 50.3147 34.5944C49.7389 34.0184 49.415 33.2375 49.4141 32.4229V10.8696C49.4149 10.055 49.7388 9.27402 50.3146 8.69796C50.8903 8.12191 51.671 7.79785 52.4853 7.79688H82.5946C83.409 7.79777 84.1897 8.1218 84.7656 8.69786C85.3414 9.27392 85.6653 10.055 85.6662 10.8696V32.4229C85.6652 33.2376 85.3413 34.0185 84.7655 34.5945C84.1896 35.1705 83.4089 35.4945 82.5946 35.4954ZM52.4853 9.17965C52.0375 9.18021 51.6081 9.35845 51.2915 9.67528C50.9749 9.9921 50.7968 10.4216 50.7963 10.8696V32.4229C50.7968 32.8709 50.9749 33.3004 51.2915 33.6172C51.6082 33.9339 52.0375 34.1121 52.4853 34.1126H82.5946C83.0425 34.1121 83.4719 33.934 83.7886 33.6172C84.1053 33.3004 84.2834 32.8709 84.284 32.4229V10.8696C84.2834 10.4216 84.1053 9.99206 83.7886 9.67524C83.4719 9.35843 83.0425 9.18019 82.5946 9.17965H52.4853Z" fill="#E6E6E6"/>
<path d="M77.3255 17.4414H57.7494C57.5668 17.4402 57.3921 17.3669 57.2634 17.2374C57.1347 17.1078 57.0625 16.9326 57.0625 16.75C57.0625 16.5674 57.1347 16.3921 57.2634 16.2626C57.3921 16.1331 57.5668 16.0597 57.7494 16.0586H77.3255C77.4167 16.058 77.507 16.0755 77.5913 16.11C77.6757 16.1445 77.7524 16.1953 77.817 16.2596C77.8816 16.3239 77.9329 16.4003 77.9679 16.4844C78.0029 16.5686 78.0209 16.6588 78.0209 16.75C78.0209 16.8411 78.0029 16.9314 77.9679 17.0156C77.9329 17.0997 77.8816 17.1761 77.817 17.2404C77.7524 17.3046 77.6757 17.3555 77.5913 17.39C77.507 17.4245 77.4167 17.4419 77.3255 17.4414Z" fill="#0067C5"/>
<path d="M77.3255 22.3378H57.7494C57.5668 22.3367 57.3921 22.2634 57.2634 22.1339C57.1347 22.0043 57.0625 21.8291 57.0625 21.6465C57.0625 21.4638 57.1347 21.2886 57.2634 21.1591C57.3921 21.0295 57.5668 20.9562 57.7494 20.9551H77.3255C77.4167 20.9545 77.507 20.972 77.5913 21.0065C77.6757 21.041 77.7524 21.0918 77.817 21.1561C77.8816 21.2203 77.9329 21.2967 77.9679 21.3809C78.0029 21.4651 78.0209 21.5553 78.0209 21.6465C78.0209 21.7376 78.0029 21.8279 77.9679 21.912C77.9329 21.9962 77.8816 22.0726 77.817 22.1369C77.7524 22.2011 77.6757 22.252 77.5913 22.2864C77.507 22.3209 77.4167 22.3384 77.3255 22.3378Z" fill="#0067C5"/>
<path d="M77.3255 27.2343H57.7494C57.5668 27.2332 57.3921 27.1599 57.2634 27.0303C57.1347 26.9008 57.0625 26.7256 57.0625 26.543C57.0625 26.3603 57.1347 26.1851 57.2634 26.0556C57.3921 25.926 57.5668 25.8527 57.7494 25.8516H77.3255C77.4167 25.851 77.507 25.8685 77.5913 25.903C77.6757 25.9375 77.7524 25.9883 77.817 26.0526C77.8816 26.1168 77.9329 26.1932 77.9679 26.2774C78.0029 26.3615 78.0209 26.4518 78.0209 26.543C78.0209 26.6341 78.0029 26.7244 77.9679 26.8085C77.9329 26.8927 77.8816 26.9691 77.817 27.0333C77.7524 27.0976 77.6757 27.1484 77.5913 27.1829C77.507 27.2174 77.4167 27.2349 77.3255 27.2343Z" fill="#0067C5"/>
<path d="M182.5 47.4388L153.582 39.0493C152.8 38.8215 152.141 38.2928 151.748 37.5792C151.356 36.8656 151.262 36.0253 151.488 35.2427L157.489 14.5423C157.716 13.7602 158.245 13.1003 158.958 12.7075C159.672 12.3146 160.512 12.2209 161.294 12.4469L190.212 20.8363C190.994 21.0641 191.653 21.5929 192.046 22.3066C192.439 23.0203 192.532 23.8607 192.306 24.6434L186.305 45.3438C186.078 46.1259 185.549 46.7857 184.836 47.1784C184.122 47.5712 183.282 47.6648 182.5 47.4388ZM160.909 13.7749C160.479 13.6507 160.017 13.7023 159.624 13.9183C159.232 14.1344 158.941 14.4973 158.816 14.9274L152.815 35.6279C152.691 36.0582 152.743 36.5204 152.959 36.9128C153.174 37.3053 153.537 37.596 153.967 37.7213L182.885 46.1107C183.315 46.2351 183.777 46.1836 184.17 45.9676C184.562 45.7516 184.853 45.3888 184.978 44.9586L190.979 24.2582C191.103 23.8278 191.051 23.3656 190.835 22.9731C190.62 22.5805 190.257 22.2897 189.827 22.1644L160.909 13.7749Z" fill="#E6E6E6"/>
<path d="M182.471 28.6319L163.669 23.1773C163.493 23.126 163.345 23.007 163.257 22.8464C163.169 22.6859 163.148 22.497 163.199 22.3211C163.25 22.1452 163.369 21.9967 163.529 21.9083C163.689 21.8198 163.878 21.7986 164.054 21.8492L182.856 27.3038C183.032 27.3549 183.18 27.4738 183.269 27.6345C183.357 27.7951 183.378 27.9843 183.327 28.1604C183.276 28.3365 183.157 28.4851 182.996 28.5736C182.836 28.662 182.647 28.6829 182.471 28.6319Z" fill="#0067C5"/>
<path d="M181.113 33.3354L162.311 27.8808C162.224 27.8555 162.143 27.8133 162.072 27.7566C162.001 27.6998 161.942 27.6297 161.898 27.5502C161.854 27.4706 161.827 27.3832 161.817 27.293C161.807 27.2027 161.815 27.1114 161.84 27.0242C161.865 26.937 161.907 26.8556 161.964 26.7848C162.021 26.7139 162.091 26.6549 162.17 26.6111C162.25 26.5673 162.337 26.5396 162.427 26.5296C162.518 26.5196 162.609 26.5275 162.696 26.5527L181.498 32.0073C181.673 32.0587 181.822 32.1777 181.91 32.3382C181.998 32.4987 182.019 32.6877 181.968 32.8635C181.917 33.0394 181.798 33.1879 181.638 33.2763C181.477 33.3648 181.289 33.386 181.113 33.3354Z" fill="#0067C5"/>
<path d="M179.744 38.0362L160.943 32.5816C160.767 32.5303 160.619 32.4113 160.531 32.2507C160.443 32.0902 160.422 31.9013 160.473 31.7254C160.524 31.5495 160.642 31.401 160.803 31.3126C160.963 31.2241 161.152 31.2029 161.328 31.2535L180.129 36.7081C180.305 36.7592 180.454 36.8781 180.542 37.0388C180.63 37.1994 180.651 37.3886 180.6 37.5647C180.549 37.7408 180.43 37.8894 180.27 37.9778C180.109 38.0663 179.92 38.0872 179.744 38.0362Z" fill="#0067C5"/>
<path d="M370.999 263.699H67.7031V265.001H370.999V263.699Z" fill="#E6E6E6"/>
<path d="M243.805 261.664H194.484L196.156 239.922H242.133L243.805 261.664Z" fill="#E6E6E6"/>
<path d="M247.148 259.154H191.977V264.172H247.148V259.154Z" fill="#E6E6E6"/>
<path d="M313.606 99.8457H125.102C123.771 99.8457 122.496 100.374 121.555 101.315C120.614 102.256 120.086 103.533 120.086 104.863V219.85H318.621V104.863C318.621 104.204 318.491 103.552 318.239 102.943C317.987 102.334 317.618 101.781 317.152 101.315C316.686 100.849 316.134 100.48 315.525 100.228C314.916 99.9755 314.264 99.8457 313.606 99.8457Z" fill="#3F3D56"/>
<path d="M120.086 219.85V238.666C120.086 239.324 120.216 239.977 120.468 240.586C120.72 241.194 121.089 241.748 121.555 242.214C122.021 242.679 122.574 243.049 123.182 243.301C123.791 243.553 124.443 243.683 125.102 243.683H313.606C314.936 243.683 316.212 243.154 317.152 242.214C318.093 241.273 318.621 239.996 318.621 238.666V219.85H120.086Z" fill="#E6E6E6"/>
<path d="M309.008 110.301H130.117V210.652H309.008V110.301Z" fill="#E6E6E6"/>
<path d="M219.562 236.576C222.333 236.576 224.578 234.33 224.578 231.559C224.578 228.787 222.333 226.541 219.562 226.541C216.792 226.541 214.547 228.787 214.547 231.559C214.547 234.33 216.792 236.576 219.562 236.576Z" fill="#3F3D56"/>
<path d="M135.694 114.539C136.22 114.539 136.646 114.113 136.646 113.587C136.646 113.061 136.22 112.635 135.694 112.635C135.168 112.635 134.742 113.061 134.742 113.587C134.742 114.113 135.168 114.539 135.694 114.539Z" fill="white"/>
<path d="M139.303 114.539C139.829 114.539 140.255 114.113 140.255 113.587C140.255 113.061 139.829 112.635 139.303 112.635C138.778 112.635 138.352 113.061 138.352 113.587C138.352 114.113 138.778 114.539 139.303 114.539Z" fill="white"/>
<path d="M142.921 114.539C143.446 114.539 143.872 114.113 143.872 113.587C143.872 113.061 143.446 112.635 142.921 112.635C142.395 112.635 141.969 113.061 141.969 113.587C141.969 114.113 142.395 114.539 142.921 114.539Z" fill="white"/>
<path d="M303.851 116.822H134.742V201.101H303.851V116.822Z" fill="white"/>
<path d="M145.981 129.641C145.822 129.641 145.67 129.704 145.558 129.816C145.446 129.928 145.383 130.08 145.383 130.239V160.469C145.383 160.628 145.446 160.78 145.558 160.892C145.67 161.004 145.822 161.067 145.981 161.067H180.878C181.037 161.067 181.189 161.004 181.301 160.892C181.413 160.78 181.476 160.628 181.476 160.469V130.239C181.476 130.08 181.413 129.928 181.301 129.816C181.189 129.704 181.037 129.641 180.878 129.641H145.981Z" fill="#E6E6E6"/>
<path d="M202.012 129.738C201.854 129.738 201.702 129.801 201.589 129.914C201.477 130.026 201.414 130.178 201.414 130.336V160.47C201.414 160.628 201.477 160.78 201.589 160.892C201.702 161.005 201.854 161.068 202.012 161.068H236.799C236.957 161.068 237.109 161.004 237.221 160.892C237.333 160.78 237.396 160.628 237.396 160.47V130.336C237.396 130.178 237.333 130.026 237.221 129.914C237.109 129.802 236.957 129.738 236.799 129.738H202.012Z" fill="#E6E6E6"/>
<path d="M257.465 129.422C257.306 129.422 257.154 129.485 257.042 129.597C256.93 129.709 256.867 129.861 256.867 130.02V160.469C256.867 160.628 256.93 160.78 257.042 160.892C257.154 161.004 257.306 161.067 257.465 161.067H292.613C292.772 161.067 292.924 161.004 293.036 160.892C293.148 160.78 293.211 160.628 293.211 160.469V130.02C293.211 129.861 293.148 129.709 293.036 129.597C292.924 129.485 292.772 129.422 292.613 129.422H257.465Z" fill="#E6E6E6"/>
<path d="M146.624 176.031C146.297 176.032 145.983 176.162 145.752 176.394C145.521 176.626 145.391 176.94 145.391 177.268C145.391 177.595 145.521 177.909 145.752 178.141C145.983 178.373 146.297 178.504 146.624 178.504H179.435C179.763 178.504 180.076 178.373 180.308 178.141C180.539 177.909 180.669 177.595 180.669 177.268C180.669 176.94 180.539 176.626 180.308 176.394C180.076 176.162 179.763 176.032 179.435 176.031H146.624Z" fill="#E6E6E6"/>
<path d="M146.624 181.914C146.297 181.915 145.983 182.045 145.752 182.277C145.521 182.509 145.391 182.823 145.391 183.151C145.391 183.478 145.521 183.792 145.752 184.024C145.983 184.256 146.297 184.387 146.624 184.387H161.397C161.725 184.387 162.039 184.256 162.27 184.024C162.501 183.792 162.631 183.478 162.631 183.151C162.631 182.823 162.501 182.509 162.27 182.277C162.039 182.045 161.725 181.915 161.397 181.914H146.624Z" fill="#0067C5"/>
<path d="M203.257 176.031C202.93 176.032 202.616 176.162 202.385 176.394C202.153 176.626 202.023 176.94 202.023 177.268C202.023 177.595 202.153 177.909 202.385 178.141C202.616 178.373 202.93 178.504 203.257 178.504H236.068C236.395 178.504 236.709 178.373 236.94 178.141C237.172 177.909 237.302 177.595 237.302 177.268C237.302 176.94 237.172 176.626 236.94 176.394C236.709 176.162 236.395 176.032 236.068 176.031H203.257Z" fill="#E6E6E6"/>
<path d="M203.257 181.914C202.93 181.915 202.616 182.045 202.385 182.277C202.153 182.509 202.023 182.823 202.023 183.151C202.023 183.478 202.153 183.792 202.385 184.024C202.616 184.256 202.93 184.387 203.257 184.387H218.03C218.358 184.387 218.672 184.256 218.903 184.024C219.134 183.792 219.264 183.478 219.264 183.151C219.264 182.823 219.134 182.509 218.903 182.277C218.672 182.045 218.358 181.915 218.03 181.914H203.257Z" fill="#0067C5"/>
<path d="M258.476 176.031C258.148 176.032 257.835 176.162 257.603 176.394C257.372 176.626 257.242 176.94 257.242 177.268C257.242 177.595 257.372 177.909 257.603 178.141C257.835 178.373 258.148 178.504 258.476 178.504H291.287C291.614 178.504 291.928 178.373 292.159 178.141C292.391 177.909 292.52 177.595 292.52 177.268C292.52 176.94 292.391 176.626 292.159 176.394C291.928 176.162 291.614 176.032 291.287 176.031H258.476Z" fill="#E6E6E6"/>
<path d="M146.624 169.957C146.297 169.958 145.983 170.088 145.752 170.32C145.521 170.552 145.391 170.866 145.391 171.194C145.391 171.521 145.521 171.835 145.752 172.067C145.983 172.299 146.297 172.429 146.624 172.43H179.435C179.763 172.429 180.076 172.299 180.308 172.067C180.539 171.835 180.669 171.521 180.669 171.194C180.669 170.866 180.539 170.552 180.308 170.32C180.076 170.088 179.763 169.958 179.435 169.957H146.624Z" fill="#E6E6E6"/>
<path d="M203.257 169.957C202.93 169.958 202.616 170.088 202.385 170.32C202.153 170.552 202.023 170.866 202.023 171.194C202.023 171.521 202.153 171.835 202.385 172.067C202.616 172.299 202.93 172.429 203.257 172.43H236.068C236.395 172.429 236.709 172.299 236.94 172.067C237.172 171.835 237.302 171.521 237.302 171.194C237.302 170.866 237.172 170.552 236.94 170.32C236.709 170.088 236.395 169.958 236.068 169.957H203.257Z" fill="#E6E6E6"/>
<path d="M258.476 169.957C258.148 169.958 257.835 170.088 257.603 170.32C257.372 170.552 257.242 170.866 257.242 171.194C257.242 171.521 257.372 171.835 257.603 172.067C257.835 172.299 258.148 172.429 258.476 172.43H291.287C291.614 172.429 291.928 172.299 292.159 172.067C292.391 171.835 292.52 171.521 292.52 171.194C292.52 170.866 292.391 170.552 292.159 170.32C291.928 170.088 291.614 169.958 291.287 169.957H258.476Z" fill="#E6E6E6"/>
<path d="M258.476 181.914C258.149 181.915 257.835 182.045 257.603 182.277C257.372 182.509 257.242 182.823 257.242 183.151C257.242 183.478 257.372 183.792 257.603 184.024C257.835 184.256 258.149 184.387 258.476 184.387H273.249C273.576 184.387 273.89 184.256 274.121 184.024C274.353 183.792 274.482 183.478 274.482 183.151C274.482 182.823 274.353 182.509 274.121 182.277C273.89 182.045 273.576 181.915 273.249 181.914H258.476Z" fill="#0067C5"/>
</g>
<defs>
<clipPath id="clip0_831_104162">
<rect width="371" height="265" fill="white"/>
</clipPath>
</defs>
</svg>
